<?xml version="1.0" encoding="UTF-8"?>
<svg width="36px" height="35px" viewBox="0 0 36 35" version="1.1" xmlns="http://www.w3.org/2000/svg" xmlns:xlink="http://www.w3.org/1999/xlink">
    <!-- Generator: Sketch 64 (93537) - https://sketch.com -->
    <title>Star</title>
    <desc>Created with Sketch.</desc>
    <g id="Design-UI" stroke="none" stroke-width="1" fill="none" fill-rule="evenodd">
        <g id="Noter-commande" transform="translate(-17.000000, -313.000000)" stroke="#A1A7B4">
            <g id="Note-service" transform="translate(15.000000, 270.000000)">
                <g id="etoiles" transform="translate(0.000000, 42.000000)">
                    <path d="M20,30 L11.5051534,34.4660051 C10.6163451,34.9332793 9.51702298,34.5915584 9.04974878,33.7027501 C8.86367774,33.3488219 8.79946924,32.9434254 8.8670635,32.5493206 L10.4894348,23.0901699 L10.4894348,23.0901699 L3.61695958,16.3911622 C2.89789853,15.6902509 2.88318525,14.5391359 3.58409654,13.8200749 C3.8632031,13.533741 4.22891657,13.3474007 4.62462027,13.2899015 L14.1221475,11.9098301 L14.1221475,11.9098301 L18.3695708,3.30361046 C18.8139749,2.40314926 19.9042037,2.03344199 20.8046649,2.47784616 C21.1632333,2.65481023 21.4534652,2.94504208 21.6304292,3.30361046 L25.8778525,11.9098301 L25.8778525,11.9098301 L35.3753797,13.2899015 C36.3690977,13.4342972 37.0576094,14.3569206 36.9132137,15.3506385 C36.8557146,15.7463422 36.6693743,16.1120557 36.3830404,16.3911622 L29.5105652,23.0901699 L29.5105652,23.0901699 L31.1329365,32.5493206 C31.3026838,33.5390233 30.6379786,34.4789431 29.648276,34.6486904 C29.2541712,34.7162847 28.8487747,34.6520762 28.4948466,34.4660051 L20,30 L20,30 Z" id="Star"></path>
                </g>
            </g>
        </g>
    </g>
</svg>